<?xml version="1.0" encoding="iso-8859-1"?>
<!-- Generator: Adobe Illustrator 19.0.0, SVG Export Plug-In . SVG Version: 6.00 Build 0)  -->
<svg version="1.1" id="Layer_1" xmlns="http://www.w3.org/2000/svg" xmlns:xlink="http://www.w3.org/1999/xlink" x="0px" y="0px"
	 viewBox="0 0 511.999 511.999" style="enable-background:new 0 0 511.999 511.999;" xml:space="preserve">
<g>
	<g>
		<path d="M184.694,440.174c-15.048,15.049-35.091,23.334-56.434,23.334c-21.345,0-41.386-8.287-56.433-23.335l-10.755,10.756
			c17.919,17.92,41.781,27.789,67.188,27.789c0.002,0-0.001,0,0.001,0c25.406,0,49.269-9.869,67.188-27.788L184.694,440.174z"/>
	</g>
</g>
<g>
	<g>
		
			<rect x="197.447" y="402.289" transform="matrix(0.7071 -0.7071 0.7071 0.7071 -223.7303 279.6548)" width="56.522" height="15.21"/>
	</g>
</g>
<g>
	<g>
		<path d="M511.999,159.555L352.445,0L250.534,101.911l-10.916-10.916L37.567,293.048C13.342,317.273,0,349.482,0,383.741
			C0,418,13.341,450.209,37.567,474.433c24.226,24.225,56.434,37.566,90.693,37.566c0.002,0-0.002,0,0.001,0
			c34.256,0,66.468-13.341,90.691-37.565l202.052-202.053l-10.917-10.917L511.999,159.555z M352.445,21.51l138.044,138.045
			l-91.156,91.157L261.288,112.666L352.445,21.51z M208.198,463.679c-21.353,21.353-49.742,33.11-79.937,33.11
			c-30.197,0-58.586-11.759-79.939-33.111C4.245,419.601,4.244,347.881,48.321,303.802l191.298-191.297l159.716,159.716l0.001-0.001
			l0.159,0.161L208.198,463.679z"/>
	</g>
</g>
<g>
	<g>
		<path d="M334.651,78.816l-38.779,38.778l38.779,38.777l38.779-38.778L334.651,78.816z M334.65,134.862l-17.268-17.267
			l17.269-17.268l17.268,17.267L334.65,134.862z"/>
	</g>
</g>
<g>
	<g>
		<path d="M394.404,138.569l-38.777,38.779l38.779,38.779l38.777-38.779L394.404,138.569z M377.137,177.349l17.268-17.269
			l17.268,17.269l-17.268,17.268L377.137,177.349z"/>
	</g>
</g>
<g>
</g>
<g>
</g>
<g>
</g>
<g>
</g>
<g>
</g>
<g>
</g>
<g>
</g>
<g>
</g>
<g>
</g>
<g>
</g>
<g>
</g>
<g>
</g>
<g>
</g>
<g>
</g>
<g>
</g>
</svg>
