<?xml version="1.0" encoding="iso-8859-1"?>
<!-- Generator: Adobe Illustrator 19.0.0, SVG Export Plug-In . SVG Version: 6.00 Build 0)  -->
<svg version="1.1" id="Layer_1" xmlns="http://www.w3.org/2000/svg" xmlns:xlink="http://www.w3.org/1999/xlink" x="0px" y="0px"
	 viewBox="0 0 236 236" style="enable-background:new 0 0 236 236;" xml:space="preserve">
<g>
	<g>
		<g>
			<path d="M235.795,192.734L220,145.349V42c0-2.211-1.791-4-4-4H24c-2.209,0-4,1.789-4,4v103.202L0.309,192.461
				c-0.516,1.234-0.379,2.644,0.363,3.758S2.662,198,4,198h228c1.285,0,2.492-0.617,3.244-1.66
				C235.996,195.297,236.201,193.953,235.795,192.734z M28,46h184v96H28V46z M10,190l16.666-40h186.451l13.334,40H10z"/>
			<rect x="84" y="178" width="68" height="8"/>
			<rect x="160" y="178" width="20" height="8"/>
			<rect x="56" y="178" width="20" height="8"/>
			<path d="M140,78h-8V58h-8v20h-12V58h-8v20h-8c-2.209,0-4,1.789-4,4v20c0,13.234,10.768,24,24.004,24h3.992
				C133.232,126,144,115.234,144,102V82C144,79.789,142.209,78,140,78z M136,102c0,8.824-7.18,16-16.004,16h-3.992
				C107.18,118,100,110.824,100,102V86h4h8h12h8h4V102z"/>
		</g>
	</g>
</g>
<g>
</g>
<g>
</g>
<g>
</g>
<g>
</g>
<g>
</g>
<g>
</g>
<g>
</g>
<g>
</g>
<g>
</g>
<g>
</g>
<g>
</g>
<g>
</g>
<g>
</g>
<g>
</g>
<g>
</g>
</svg>
